<svg xmlns="http://www.w3.org/2000/svg" viewBox="0 0 1024 1024" fill="currentColor"><g transform="translate(0 1003.0) scale(1 -1)"><path d="M871 818Q896 793 896 757V129Q896 93 871.0 68.0Q846 43 810 43H214Q178 43 153.0 68.0Q128 93 128 129V757Q128 793 153.0 818.0Q178 843 214 843H388Q399 885 433.0 912.0Q467 939 512.0 939.0Q557 939 592 912Q626 885 636 843H810Q846 843 871 818ZM482 830Q470 817 470 801Q470 783 482.0 770.0Q494 757 512.0 757.0Q530 757 542.0 770.0Q554 783 554 801Q554 817 542.0 830.0Q530 843 512.0 843.0Q494 843 482 830ZM816 763H736V619H288V763H208V123H816Z"/></g></svg>
