<svg xmlns="http://www.w3.org/2000/svg" viewBox="0 0 1024 1024" fill="currentColor"><g transform="translate(0 1003.0) scale(1 -1)"><path d="M651 723Q716 699 772 662Q827 624 874.0 578.0Q921 532 960 489Q922 450 875 406Q828 361 773 323Q717 285 652.0 260.0Q587 235 512.0 235.0Q437 235 376 256Q316 276 264 312Q211 347 162 393Q114 440 64 491Q123 550 177 597Q231 645 285.0 678.0Q339 711 395.0 729.0Q451 747 512 747Q586 747 651 723ZM639 363Q692 416 692.0 491.0Q692 566 639 620Q585 673 512 673Q438 673 385 620Q332 566 332.0 491.0Q332 416 386 363Q439 309 512 309Q586 309 639 363ZM531 510Q549 491 576 491Q588 491 598 495Q607 499 616 505V491Q616 447 586 416Q555 385 512 385Q468 385 438.0 416.0Q408 447 408 491Q408 534 439 566Q469 597 512 597H528Q520 588 516 578Q512 567 512 555Q512 528 531 510Z"/></g></svg>
