<svg xmlns="http://www.w3.org/2000/svg" viewBox="0 0 1024 1024" fill="currentColor"><g transform="translate(0 1003.0) scale(1 -1)"><path d="M129 690Q129 699 142 705L480 869Q486 872 495 874Q503 875 512.0 875.0Q521 875 530 874Q538 872 544 869L882 705Q895 699 895 690Q895 680 882 673L544 511Q538 508 530 507Q521 505 512.0 505.0Q503 505 495 507Q486 508 480 511L142 673Q129 680 129 690ZM895 490Q895 481 882 475L544 313Q538 308 530 307Q521 305 512.0 305.0Q503 305 495 307Q486 308 480 313L142 475Q129 482 129 492Q129 501 142 507L171 521Q199 534 208 539Q216 543 221 543Q225 543 234 539Q239 536 278.0 517.0Q317 498 362.0 476.0Q407 454 443 437L480 419Q486 416 495 415Q503 413 512.0 413.0Q521 413 530 415Q538 416 544 419L582 437Q620 456 666 479Q712 501 752 520Q791 539 794 541Q800 544 803.0 544.0Q806 544 812.0 541.0Q818 538 850 523L882 507Q895 499 895 490ZM895 292Q895 283 882 277L544 113Q538 110 530 109Q521 107 512.0 107.0Q503 107 495 109Q486 110 480 113L142 277Q129 283 129.0 292.0Q129 301 142 307L171 322Q199 336 208 341Q215 344 219 344Q220 344 221 344Q225 343 234 339Q239 337 278 319Q317 300 362.0 278.0Q407 256 443 239L480 221Q486 218 495 217Q503 215 512.0 215.0Q521 215 530 217Q538 218 544 221Q620 257 666.0 279.0Q712 301 752 320Q791 339 794 341Q800 344 803.0 344.0Q806 344 812.0 341.0Q818 338 850 323L882 307Q895 301 895 292Z"/></g></svg>
