<svg xmlns="http://www.w3.org/2000/svg" viewBox="0 0 1024 1024" fill="currentColor"><g transform="translate(0 1003.0) scale(1 -1)"><path d="M605 856Q648 837 681 805Q713 772 731 728Q750 684 750 635Q750 548 713.0 455.0Q676 362 631 285Q586 207 549 157L512 107Q438 207 393 285Q348 362 311.0 455.0Q274 548 274 635Q274 684 293 728Q311 772 344 805Q376 837 419 856Q463 875 512 875Q562 875 605 856ZM592 552Q624 584 624 631Q624 679 591.0 712.0Q558 745 512 745Q465 745 433 712Q400 679 400 631Q400 584 433 552Q466 519 512 519Q559 519 592 552Z"/></g></svg>
