<svg xmlns="http://www.w3.org/2000/svg" viewBox="0 0 1024 1024" fill="currentColor"><g transform="translate(0 1003.0) scale(1 -1)"><path d="M625 604Q672 557 672.0 491.0Q672 425 625.0 378.0Q578 331 512.0 331.0Q446 331 399.0 378.0Q352 425 352.0 491.0Q352 557 399.0 604.0Q446 651 512.0 651.0Q578 651 625 604ZM960 533V449H894Q886 382 857 323Q828 265 783 220Q738 174 679 145Q621 116 554 109V43H470V109Q403 116 345 145Q286 174 241 220Q196 265 167 323Q137 382 130 449H64V533H130Q138 599 167.0 658.0Q196 717 241.0 762.0Q286 807 345 836Q403 865 470 873V939H554V873Q621 865 679 836Q738 807 783.0 762.0Q828 717 857 658Q887 599 894 533ZM628 216Q682 240 723 281Q763 321 787 375Q810 429 810 491Q810 552 786 606Q763 661 723 702Q682 742 628 765Q573 789 512 789Q450 789 396 765Q342 742 302 702Q261 661 237 606Q214 552 214 491Q214 429 238 375Q261 321 302 281Q342 240 396 216Q451 193 512 193Q574 193 628 216Z"/></g></svg>
