<svg xmlns="http://www.w3.org/2000/svg" viewBox="0 0 1024 1024" fill="currentColor"><g transform="translate(0 1003.0) scale(1 -1)"><path d="M588 574Q552 609 552 659Q552 708 589 744Q625 779 674 779Q725 779 762 744Q798 708 798 659Q798 609 762 574Q725 539 674 539Q624 539 588 574ZM263 574Q226 609 226 659Q226 708 263 744Q299 779 350 779Q400 779 436 744Q472 708 472 659Q472 609 436 574Q399 539 350 539Q299 539 263 574ZM435 442Q485 433 531 416Q576 398 608.0 372.0Q640 346 640 311V203H64V311Q64 346 95.0 372.0Q126 398 171 416Q216 433 265.0 442.0Q314 451 350 451Q385 451 435 442ZM759 423Q808 418 853.0 405.0Q898 392 929.0 369.0Q960 346 960 311V203H704V311Q704 356 689 379Q674 401 640 427Q651 428 658 429Q665 429 674 429Q710 429 759 423Z"/></g></svg>
