<svg xmlns="http://www.w3.org/2000/svg" viewBox="0 0 1024 1024" fill="currentColor"><g transform="translate(0 1003.0) scale(1 -1)"><path d="M715 503Q736 473 736 437Q736 413 730.0 404.0Q724 395 706 395H544L520 43H504L480 395H318Q301 395 295 404Q288 413 288 437Q288 473 310 503Q332 532 360 547Q363 547 365.0 548.0Q367 549 368 551Q379 557 386.0 567.0Q393 577 396 589L432 825Q432 845 427 851Q421 856 412 861Q412 862 411 863Q409 863 408 863Q397 869 391 876Q384 883 384 897Q384 927 394.0 933.0Q404 939 420 939H604Q621 939 631 933Q640 927 640 897Q640 883 633.0 876.0Q626 869 616 863Q614 863 613 863Q612 862 612 861Q603 858 598 852Q592 845 592 835V825L628 589Q631 577 639 567Q646 557 656 551Q658 549 661 548Q663 547 664 547Q694 532 715 503Z"/></g></svg>
