<svg xmlns="http://www.w3.org/2000/svg" viewBox="0 0 1024 1024" fill="currentColor"><g transform="translate(0 959.5) scale(1 -1)"><path d="M832 324 777 268Q769 260 757 257Q747 255 736 257Q725 260 716 268Q708 277 705 288Q703 299 705 309Q708 321 716 329L772 384L704 452L649 396Q641 388 629 385Q619 383 608 385Q597 388 588 396Q580 405 577 416Q575 427 577 437Q580 449 588 457L644 512L576 580L521 524Q513 516 501 513Q491 511 480 513Q469 516 460 524Q452 533 449 544Q447 555 449 565Q452 577 460 585L516 640L448 708L393 652Q385 644 373 641Q363 639 352 641Q341 644 332 652Q324 661 321 672Q319 683 321 693Q324 705 332 713L388 768L341 815Q332 823 321 828Q310 832 299 832Q287 832 276 828Q265 823 256 815L145 704Q137 695 132 684Q128 673 128 661Q128 650 132 639Q137 628 145 619L683 81Q691 73 702 68Q713 64 725.0 64.0Q737 64 748 68Q759 73 768 81L879 192Q887 201 892 212Q896 223 896.0 235.0Q896 247 892 258Q887 269 879 277ZM862 414 939 337Q959 317 970 290Q982 264 982.0 235.0Q982 206 970 179Q959 152 939 132L828 21Q808 1 781 -11Q754 -22 725.0 -22.0Q696 -22 670 -10Q643 1 623 21L85 559Q64 580 53 607Q43 633 43 661Q43 690 53 716Q64 743 85 764L196 875Q217 896 244 907Q270 917 299 917Q327 917 353 907Q380 896 401 875L478 798L606 670L734 542Z"/></g></svg>
