<svg xmlns="http://www.w3.org/2000/svg" viewBox="0 0 1024 1024" fill="currentColor"><g transform="translate(0 1003.0) scale(1 -1)"><path d="M856 279Q892 242 892.0 191.0Q892 140 856 104Q819 67 768.0 67.0Q717 67 681 104Q644 140 644 191Q644 198 646 205Q647 211 648 219L344 395Q326 378 304 370Q281 361 256 361Q203 361 166 399Q128 436 128 489Q128 541 165.0 579.0Q202 617 254 617Q280 617 302 608Q324 598 342 583L644 757Q642 764 641 772Q640 779 640 787Q640 839 678.0 877.0Q716 915 768 915Q821 915 859 877Q896 839 896 787Q896 734 858 697Q820 659 768 659Q742 659 720 669Q698 678 680 693L378 519Q380 511 381 504Q382 496 382 489Q382 481 381 474Q379 466 378 459L684 283Q701 298 723 307Q744 315 768 315Q819 315 856 279Z"/></g></svg>
