<svg xmlns="http://www.w3.org/2000/svg" viewBox="0 0 1024 1024" fill="currentColor"><g transform="translate(0 1003.0) scale(1 -1)"><path d="M677 883Q755 849 813.0 791.0Q871 733 904 656Q938 578 938 491Q938 403 905 325Q871 248 814 190Q756 132 678 98Q600 65 512 65Q423 65 346 98Q268 132 211 190Q153 248 119 325Q86 403 86 491Q86 578 119 656Q153 733 211 791Q268 849 346.0 883.0Q424 917 512.0 917.0Q600 917 677 883ZM644 177Q706 204 753 250Q799 296 825 358Q852 420 852 491Q852 561 825 623Q799 685 753 731Q706 777 644.0 804.0Q582 831 512 831Q441 831 380 804Q318 777 272 731Q225 685 199 623Q172 561 172 491Q172 420 199 358Q225 296 272 250Q318 204 380 177Q442 151 512 151Q583 151 644 177ZM534 481 726 367 694 315 470 449V703H534Z"/></g></svg>
