<svg xmlns="http://www.w3.org/2000/svg" viewBox="0 0 1024 1024" fill="currentColor"><g transform="translate(0 1003.0) scale(1 -1)"><path d="M630 800Q688 789 743 768Q797 746 847 714Q897 683 940 643L960 623L940 605L856 521L838 539Q804 569 766.0 593.0Q728 617 687 634Q645 650 601 658Q557 667 512 667Q466 667 422 658Q378 650 337 634Q296 617 258.0 593.0Q220 569 186 539L168 521L84 605L64 623L84 643Q128 683 177 714Q227 746 282 768Q336 789 394.0 800.0Q452 811 512.0 811.0Q572 811 630 800ZM816 471 796 451 730 387 712 369 694 385Q655 418 608 437Q561 455 512 455Q462 455 416 437Q369 418 332 385L312 369L294 387L228 451L208 471L230 491Q284 540 353 568Q421 596 494 599H512Q592 599 665 571Q737 543 794 491ZM512 171 388 295 366 315 390 335Q414 350 442 363Q469 375 512 375Q556 375 584.0 363.0Q612 351 636 335L658 315L532 189Z"/></g></svg>
